<svg width="306" height="80" viewBox="0 0 306 80" fill="none" xmlns="http://www.w3.org/2000/svg">
<path d="M103.349 32.6328C103.183 31.0821 102.485 29.8748 101.254 29.0107C100.034 28.1465 98.4482 27.7145 96.495 27.7145C95.1219 27.7145 93.9441 27.9216 92.9616 28.3359C91.9792 28.7502 91.2275 29.3125 90.7067 30.0227C90.1858 30.733 89.9195 31.5438 89.9077 32.4553C89.9077 33.2128 90.0793 33.8698 90.4226 34.4261C90.7777 34.9825 91.2571 35.456 91.8608 35.8466C92.4645 36.2254 93.1333 36.545 93.8672 36.8054C94.6011 37.0658 95.3409 37.2848 96.0866 37.4624L99.4957 38.3146C100.869 38.6342 102.189 39.0663 103.455 39.6108C104.734 40.1553 105.876 40.8419 106.882 41.6705C107.9 42.4991 108.705 43.4993 109.297 44.6712C109.889 45.843 110.185 47.2161 110.185 48.7905C110.185 50.9212 109.64 52.7973 108.551 54.419C107.462 56.0289 105.888 57.2895 103.828 58.201C101.78 59.1006 99.3004 59.5504 96.3885 59.5504C93.5594 59.5504 91.1032 59.1125 89.0199 58.2365C86.9484 57.3606 85.3267 56.0821 84.1548 54.4013C82.9948 52.7204 82.3674 50.6726 82.2727 48.2578H88.7536C88.8482 49.5244 89.2389 50.5779 89.9254 51.4183C90.612 52.2588 91.5057 52.8861 92.6065 53.3004C93.7192 53.7147 94.9621 53.9219 96.3352 53.9219C97.7675 53.9219 99.0223 53.7088 100.099 53.2827C101.188 52.8447 102.041 52.241 102.656 51.4716C103.272 50.6903 103.585 49.7789 103.597 48.7372C103.585 47.7902 103.307 47.009 102.763 46.3935C102.218 45.7661 101.455 45.2453 100.472 44.831C99.5017 44.4048 98.3653 44.026 97.0632 43.6946L92.9261 42.6293C89.9313 41.8598 87.5639 40.6939 85.8239 39.1314C84.0956 37.5571 83.2315 35.4678 83.2315 32.8636C83.2315 30.7211 83.8116 28.8449 84.9716 27.2351C86.1435 25.6252 87.7356 24.3764 89.7479 23.4886C91.7602 22.589 94.0388 22.1392 96.5838 22.1392C99.1643 22.1392 101.425 22.589 103.366 23.4886C105.32 24.3764 106.853 25.6134 107.965 27.1996C109.078 28.7739 109.652 30.585 109.688 32.6328H103.349ZM123.951 43.0199V59H117.523V22.6364H123.809V36.3615H124.128C124.768 34.8227 125.756 33.6094 127.094 32.7216C128.443 31.822 130.159 31.3722 132.243 31.3722C134.137 31.3722 135.788 31.7687 137.197 32.5618C138.605 33.3549 139.694 34.5149 140.464 36.0419C141.245 37.5689 141.635 39.4332 141.635 41.6349V59H135.208V42.6293C135.208 40.7945 134.734 39.3681 133.787 38.3501C132.852 37.3203 131.538 36.8054 129.846 36.8054C128.709 36.8054 127.691 37.054 126.792 37.5511C125.904 38.0365 125.206 38.7408 124.697 39.6641C124.199 40.5874 123.951 41.706 123.951 43.0199ZM157.785 59.5504C156.057 59.5504 154.501 59.2427 153.116 58.6271C151.742 57.9998 150.653 57.0765 149.849 55.8572C149.055 54.638 148.659 53.1347 148.659 51.3473C148.659 49.8085 148.943 48.536 149.511 47.5298C150.079 46.5237 150.855 45.7188 151.837 45.1151C152.82 44.5114 153.926 44.0556 155.157 43.7479C156.4 43.4283 157.685 43.1974 159.01 43.0554C160.608 42.8897 161.905 42.7417 162.899 42.6115C163.893 42.4695 164.615 42.2564 165.065 41.9723C165.527 41.6764 165.758 41.2206 165.758 40.6051V40.4986C165.758 39.161 165.361 38.1252 164.568 37.3913C163.775 36.6574 162.633 36.2905 161.141 36.2905C159.567 36.2905 158.318 36.6338 157.395 37.3203C156.483 38.0069 155.868 38.8177 155.548 39.7528L149.547 38.9006C150.02 37.2434 150.801 35.8584 151.89 34.7457C152.979 33.6212 154.311 32.7808 155.885 32.2244C157.46 31.6562 159.2 31.3722 161.106 31.3722C162.42 31.3722 163.728 31.526 165.03 31.8338C166.332 32.1416 167.521 32.6506 168.599 33.3608C169.676 34.0592 170.54 35.0121 171.191 36.2195C171.854 37.4268 172.185 38.9361 172.185 40.7472V59H166.006V55.2536H165.793C165.403 56.0111 164.852 56.7214 164.142 57.3842C163.443 58.0353 162.562 58.562 161.496 58.9645C160.443 59.3551 159.206 59.5504 157.785 59.5504ZM159.454 54.8274C160.745 54.8274 161.863 54.5729 162.81 54.0639C163.757 53.5431 164.485 52.8565 164.994 52.0043C165.515 51.152 165.775 50.2228 165.775 49.2166V46.0028C165.574 46.1686 165.231 46.3224 164.746 46.4645C164.272 46.6065 163.739 46.7308 163.148 46.8374C162.556 46.9439 161.97 47.0386 161.39 47.1214C160.81 47.2043 160.307 47.2753 159.881 47.3345C158.922 47.4647 158.064 47.6778 157.306 47.9737C156.548 48.2696 155.951 48.6839 155.513 49.2166C155.075 49.7375 154.856 50.4122 154.856 51.2408C154.856 52.4245 155.288 53.3182 156.152 53.9219C157.016 54.5256 158.117 54.8274 159.454 54.8274ZM180.398 59V31.7273H186.631V36.2727H186.915C187.412 34.6984 188.264 33.4851 189.471 32.6328C190.691 31.7687 192.081 31.3366 193.644 31.3366C193.999 31.3366 194.396 31.3544 194.834 31.3899C195.283 31.4136 195.656 31.455 195.952 31.5142V37.4268C195.68 37.3321 195.248 37.2493 194.656 37.1783C194.076 37.0954 193.514 37.054 192.969 37.054C191.797 37.054 190.744 37.3085 189.809 37.8175C188.885 38.3146 188.157 39.0071 187.625 39.8949C187.092 40.7827 186.826 41.8066 186.826 42.9666V59H180.398ZM212.923 59.5327C210.189 59.5327 207.827 58.9645 205.839 57.8281C203.862 56.6799 202.341 55.0582 201.276 52.9631C200.21 50.8561 199.678 48.3762 199.678 45.5234C199.678 42.718 200.21 40.2559 201.276 38.1371C202.353 36.0064 203.856 34.3492 205.786 33.1655C207.715 31.9699 209.982 31.3722 212.586 31.3722C214.267 31.3722 215.853 31.6444 217.344 32.1889C218.848 32.7216 220.174 33.5502 221.322 34.6747C222.482 35.7992 223.393 37.2315 224.056 38.9716C224.719 40.6998 225.05 42.7595 225.05 45.1506V47.1214H202.696V42.7891H218.889C218.877 41.558 218.611 40.4631 218.09 39.5043C217.569 38.5336 216.841 37.7701 215.906 37.2138C214.983 36.6574 213.906 36.3793 212.675 36.3793C211.361 36.3793 210.207 36.6989 209.212 37.3381C208.218 37.9654 207.443 38.794 206.886 39.8239C206.342 40.8419 206.064 41.9605 206.052 43.1797V46.9616C206.052 48.5478 206.342 49.9091 206.922 51.0455C207.502 52.17 208.313 53.0341 209.354 53.6378C210.396 54.2296 211.615 54.5256 213.012 54.5256C213.947 54.5256 214.794 54.3954 215.551 54.1349C216.309 53.8627 216.966 53.4661 217.522 52.9453C218.078 52.4245 218.499 51.7794 218.783 51.0099L224.784 51.6847C224.405 53.2708 223.683 54.6558 222.618 55.8395C221.564 57.0114 220.215 57.9228 218.57 58.5739C216.924 59.2131 215.042 59.5327 212.923 59.5327Z" fill="white"/>
<path d="M232.522 22.6364H240.583L251.379 48.9858H251.805L262.6 22.6364H270.661V59H264.34V34.0178H264.003L253.953 58.8935H249.23L239.181 33.9645H238.843V59H232.522V22.6364ZM291.374 59.5327C288.64 59.5327 286.279 58.9645 284.29 57.8281C282.313 56.6799 280.792 55.0582 279.727 52.9631C278.661 50.8561 278.129 48.3762 278.129 45.5234C278.129 42.718 278.661 40.2559 279.727 38.1371C280.804 36.0064 282.307 34.3492 284.237 33.1655C286.166 31.9699 288.433 31.3722 291.037 31.3722C292.718 31.3722 294.304 31.6444 295.796 32.1889C297.299 32.7216 298.625 33.5502 299.773 34.6747C300.933 35.7992 301.844 37.2315 302.507 38.9716C303.17 40.6998 303.502 42.7595 303.502 45.1506V47.1214H281.147V42.7891H297.34C297.329 41.558 297.062 40.4631 296.541 39.5043C296.021 38.5336 295.293 37.7701 294.357 37.2138C293.434 36.6574 292.357 36.3793 291.126 36.3793C289.812 36.3793 288.658 36.6989 287.664 37.3381C286.669 37.9654 285.894 38.794 285.338 39.8239C284.793 40.8419 284.515 41.9605 284.503 43.1797V46.9616C284.503 48.5478 284.793 49.9091 285.373 51.0455C285.953 52.17 286.764 53.0341 287.806 53.6378C288.847 54.2296 290.066 54.5256 291.463 54.5256C292.398 54.5256 293.245 54.3954 294.002 54.1349C294.76 53.8627 295.417 53.4661 295.973 52.9453C296.53 52.4245 296.95 51.7794 297.234 51.0099L303.235 51.6847C302.856 53.2708 302.134 54.6558 301.069 55.8395C300.016 57.0114 298.666 57.9228 297.021 58.5739C295.375 59.2131 293.493 59.5327 291.374 59.5327Z" fill="#7C3AED"/>
<path d="M55 40C55 43.9782 53.4196 47.7936 50.6066 50.6066C47.7936 53.4196 43.9782 55 40 55C36.0218 55 32.2064 53.4196 29.3934 50.6066C26.5804 47.7936 25 43.9782 25 40C25 36.0218 26.5804 32.2064 29.3934 29.3934C32.2064 26.5804 36.0218 25 40 25C43.9782 25 47.7936 26.5804 50.6066 29.3934C53.4196 32.2064 55 36.0218 55 40V40ZM50 40C50 37.3478 48.9464 34.8043 47.0711 32.9289C45.1957 31.0536 42.6522 30 40 30C37.3478 30 34.8043 31.0536 32.9289 32.9289C31.0536 34.8043 30 37.3478 30 40C30 42.6522 31.0536 45.1957 32.9289 47.0711C34.8043 48.9464 37.3478 50 40 50C42.6522 50 45.1957 48.9464 47.0711 47.0711C48.9464 45.1957 50 42.6522 50 40ZM33.09 10C31.6964 10 30.3304 10.3884 29.1452 11.1214C27.96 11.8544 27.0025 12.9032 26.38 14.15L23.455 20H20C17.3478 20 14.8043 21.0536 12.9289 22.9289C11.0536 24.8043 10 27.3478 10 30V55C10 57.6522 11.0536 60.1957 12.9289 62.0711C14.8043 63.9464 17.3478 65 20 65H60C62.6522 65 65.1957 63.9464 67.0711 62.0711C68.9464 60.1957 70 57.6522 70 55V30C70 27.3478 68.9464 24.8043 67.0711 22.9289C65.1957 21.0536 62.6522 20 60 20H56.545L53.62 14.15C52.9975 12.9032 52.04 11.8544 50.8548 11.1214C49.6696 10.3884 48.3036 10 46.91 10H33.09ZM30.855 16.38C31.0628 15.9653 31.3819 15.6165 31.7767 15.3728C32.1714 15.1291 32.6261 15 33.09 15H46.91C47.3739 15 47.8286 15.1291 48.2233 15.3728C48.6181 15.6165 48.9372 15.9653 49.145 16.38L52.765 23.62C52.9728 24.0347 53.2919 24.3835 53.6867 24.6272C54.0814 24.8709 54.5361 25 55 25H60C61.3261 25 62.5979 25.5268 63.5355 26.4645C64.4732 27.4021 65 28.6739 65 30V55C65 56.3261 64.4732 57.5979 63.5355 58.5355C62.5979 59.4732 61.3261 60 60 60H20C18.6739 60 17.4021 59.4732 16.4645 58.5355C15.5268 57.5979 15 56.3261 15 55V30C15 28.6739 15.5268 27.4021 16.4645 26.4645C17.4021 25.5268 18.6739 25 20 25H25C25.4639 25 25.9186 24.8709 26.3133 24.6272C26.7081 24.3835 27.0272 24.0347 27.235 23.62L30.855 16.38V16.38Z" fill="#7C3AED"/>
</svg>
